# xmcd CD database file
#
# Track frame offsets:
#	150
#	10513
#	19666
#	31548
#	45833
#	59664
#	70898
#	83349
#	93993
#	105189
#	120942
#	134309
#	148004
#	159851
#	173587
#	188200
#	201953
#	214649
#	227982
#	242262
#
# Disc length: 3403 seconds
#
# Revision: 0
# Processed by: cddbd v1.4PL0 Copyright (c) Steve Scherf et al.
# Submitted via: CDex 1.40Release
#
DISCID=e70d4914
DTITLE=JImmie Revard - Hillbilly Swing CD #4
DYEAR=1900
DGENRE=Country
TTITLE0=A Bundle Of Old Southern Sunshine (1938)
TTITLE1=I'm Gettin' Nowhere (1938)
TTITLE2=Oh, Swing It( 1938)
TTITLE3=All Dolled Up (1938)
TTITLE4=If I Could Only Blot Out The Past (1938)
TTITLE5=Little Picture Playhouse (1938)
TTITLE6=It's A Long Way To Tipperary (1938)
TTITLE7=An Old Time Westener (1938)
TTITLE8=Cheatin' (1938)
TTITLE9=Totten' The Poke (1938)
TTITLE10=Smiles (1938)
TTITLE11=Don't Waste Your Tears Over Me (1940)
TTITLE12=Just A Good Time Gal (1940)
TTITLE13=I'll Take Her Back (1940)
TTITLE14=The Sidewalk Waltz (1940)
TTITLE15=Mistakes (1940)
TTITLE16=Under The Moon (1940)
TTITLE17=If They String Me Up (1940)
TTITLE18=Ja Da (1940)
TTITLE19=Holdin' The Sack #2 (Ca. 1950)
EXTD=ID3G: 2
EXTT0=
EXTT1=
EXTT2=
EXTT3=
EXTT4=
EXTT5=
EXTT6=
EXTT7=
EXTT8=
EXTT9=
EXTT10=
EXTT11=
EXTT12=
EXTT13=
EXTT14=
EXTT15=
EXTT16=
EXTT17=
EXTT18=
EXTT19=
PLAYORDER=
